<mxfile host="app.diagrams.net" modified="2023-12-11T12:34:41.486Z" agent="Mozilla/5.0 (Windows NT 10.0; Win64; x64) AppleWebKit/537.36 (KHTML, like Gecko) Chrome/118.0.5993.2471 YaBrowser/23.11.0.2471 Yowser/2.5 Safari/537.36" etag="uV29iNkAI0a0nrzuqU01" version="22.1.7" type="device">
  <diagram id="C5RBs43oDa-KdzZeNtuy" name="Page-1">
    <mxGraphModel dx="1687" dy="1022" grid="1" gridSize="10" guides="1" tooltips="1" connect="1" arrows="1" fold="1" page="1" pageScale="1" pageWidth="827" pageHeight="1169" math="0" shadow="0">
      <root>
        <mxCell id="WIyWlLk6GJQsqaUBKTNV-0" />
        <mxCell id="WIyWlLk6GJQsqaUBKTNV-1" parent="WIyWlLk6GJQsqaUBKTNV-0" />
        <mxCell id="xRtonENm7YixPHdE5AxC-2" value="" style="edgeStyle=orthogonalEdgeStyle;rounded=0;orthogonalLoop=1;jettySize=auto;html=1;" edge="1" parent="WIyWlLk6GJQsqaUBKTNV-1" source="WIyWlLk6GJQsqaUBKTNV-3" target="xRtonENm7YixPHdE5AxC-1">
          <mxGeometry relative="1" as="geometry" />
        </mxCell>
        <mxCell id="WIyWlLk6GJQsqaUBKTNV-3" value="main" style="rounded=1;whiteSpace=wrap;html=1;fontSize=12;glass=0;strokeWidth=1;shadow=0;" parent="WIyWlLk6GJQsqaUBKTNV-1" vertex="1">
          <mxGeometry x="160" y="80" width="120" height="40" as="geometry" />
        </mxCell>
        <mxCell id="xRtonENm7YixPHdE5AxC-4" value="" style="edgeStyle=orthogonalEdgeStyle;rounded=0;orthogonalLoop=1;jettySize=auto;html=1;" edge="1" parent="WIyWlLk6GJQsqaUBKTNV-1" source="xRtonENm7YixPHdE5AxC-1" target="xRtonENm7YixPHdE5AxC-3">
          <mxGeometry relative="1" as="geometry" />
        </mxCell>
        <mxCell id="xRtonENm7YixPHdE5AxC-1" value="string[] array1&lt;br&gt;string array2&lt;br&gt;int count = 0" style="shape=parallelogram;perimeter=parallelogramPerimeter;whiteSpace=wrap;html=1;fixedSize=1;rounded=1;glass=0;strokeWidth=1;shadow=0;" vertex="1" parent="WIyWlLk6GJQsqaUBKTNV-1">
          <mxGeometry x="160" y="250" width="120" height="60" as="geometry" />
        </mxCell>
        <mxCell id="xRtonENm7YixPHdE5AxC-6" value="" style="edgeStyle=orthogonalEdgeStyle;rounded=0;orthogonalLoop=1;jettySize=auto;html=1;" edge="1" parent="WIyWlLk6GJQsqaUBKTNV-1" source="xRtonENm7YixPHdE5AxC-3" target="xRtonENm7YixPHdE5AxC-5">
          <mxGeometry relative="1" as="geometry" />
        </mxCell>
        <mxCell id="xRtonENm7YixPHdE5AxC-3" value="fot(int i = 0;&lt;br&gt;i&amp;lt;array.Length;i++)" style="shape=hexagon;perimeter=hexagonPerimeter2;whiteSpace=wrap;html=1;fixedSize=1;rounded=1;glass=0;strokeWidth=1;shadow=0;" vertex="1" parent="WIyWlLk6GJQsqaUBKTNV-1">
          <mxGeometry x="160" y="400" width="120" height="80" as="geometry" />
        </mxCell>
        <mxCell id="xRtonENm7YixPHdE5AxC-8" value="" style="edgeStyle=orthogonalEdgeStyle;rounded=0;orthogonalLoop=1;jettySize=auto;html=1;" edge="1" parent="WIyWlLk6GJQsqaUBKTNV-1" source="xRtonENm7YixPHdE5AxC-5" target="xRtonENm7YixPHdE5AxC-7">
          <mxGeometry relative="1" as="geometry" />
        </mxCell>
        <mxCell id="xRtonENm7YixPHdE5AxC-5" value="if (array1[i].length&amp;lt;=3)" style="rhombus;whiteSpace=wrap;html=1;rounded=1;glass=0;strokeWidth=1;shadow=0;" vertex="1" parent="WIyWlLk6GJQsqaUBKTNV-1">
          <mxGeometry x="125" y="520" width="190" height="80" as="geometry" />
        </mxCell>
        <mxCell id="xRtonENm7YixPHdE5AxC-9" value="" style="edgeStyle=orthogonalEdgeStyle;rounded=0;orthogonalLoop=1;jettySize=auto;html=1;" edge="1" parent="WIyWlLk6GJQsqaUBKTNV-1" source="xRtonENm7YixPHdE5AxC-7" target="xRtonENm7YixPHdE5AxC-3">
          <mxGeometry relative="1" as="geometry" />
        </mxCell>
        <mxCell id="xRtonENm7YixPHdE5AxC-7" value="arraay2[count]= array[i]&lt;br&gt;count++" style="rounded=1;whiteSpace=wrap;html=1;glass=0;strokeWidth=1;shadow=0;" vertex="1" parent="WIyWlLk6GJQsqaUBKTNV-1">
          <mxGeometry x="-110" y="410" width="160" height="60" as="geometry" />
        </mxCell>
        <mxCell id="xRtonENm7YixPHdE5AxC-13" style="edgeStyle=orthogonalEdgeStyle;rounded=0;orthogonalLoop=1;jettySize=auto;html=1;exitX=0;exitY=0.5;exitDx=0;exitDy=0;entryX=0.047;entryY=0.642;entryDx=0;entryDy=0;entryPerimeter=0;" edge="1" parent="WIyWlLk6GJQsqaUBKTNV-1" source="xRtonENm7YixPHdE5AxC-5" target="xRtonENm7YixPHdE5AxC-3">
          <mxGeometry relative="1" as="geometry">
            <Array as="points">
              <mxPoint x="105" y="560" />
              <mxPoint x="105" y="460" />
              <mxPoint x="166" y="460" />
            </Array>
          </mxGeometry>
        </mxCell>
        <mxCell id="xRtonENm7YixPHdE5AxC-14" value="yes" style="text;html=1;align=center;verticalAlign=middle;resizable=0;points=[];autosize=1;strokeColor=none;fillColor=none;" vertex="1" parent="WIyWlLk6GJQsqaUBKTNV-1">
          <mxGeometry x="20" y="528" width="40" height="30" as="geometry" />
        </mxCell>
        <mxCell id="xRtonENm7YixPHdE5AxC-15" value="no" style="text;html=1;align=center;verticalAlign=middle;resizable=0;points=[];autosize=1;strokeColor=none;fillColor=none;" vertex="1" parent="WIyWlLk6GJQsqaUBKTNV-1">
          <mxGeometry x="100" y="498" width="40" height="30" as="geometry" />
        </mxCell>
      </root>
    </mxGraphModel>
  </diagram>
</mxfile>
